<svg xmlns="http://www.w3.org/2000/svg" xmlns:xlink="http://www.w3.org/1999/xlink" width="726" zoomAndPan="magnify" viewBox="0 0 544.5 109.499999" height="146" preserveAspectRatio="xMidYMid meet" version="1.0"><defs><g/></defs><g fill="#079992" fill-opacity="1"><g transform="translate(0.988638, 86.572982)"><g><path d="M 67.8125 -64.4375 L 45.609375 0 L 22.671875 0 L 0.359375 -64.4375 L 19.5625 -64.4375 L 34.1875 -17.90625 L 48.71875 -64.4375 Z M 67.8125 -64.4375 "/></g></g></g><g fill="#079992" fill-opacity="1"><g transform="translate(69.260888, 86.572982)"><g><path d="M 23.03125 -50.078125 L 23.03125 -39.578125 L 43.59375 -39.578125 L 43.59375 -25.953125 L 23.03125 -25.953125 L 23.03125 -14.34375 L 46.328125 -14.34375 L 46.328125 0 L 5.125 0 L 5.125 -64.4375 L 46.328125 -64.4375 L 46.328125 -50.078125 Z M 23.03125 -50.078125 "/></g></g></g><g fill="#079992" fill-opacity="1"><g transform="translate(119.34548, 86.572982)"><g><path d="M 64.796875 0 L 46.890625 0 L 23.03125 -36.015625 L 23.03125 0 L 5.125 0 L 5.125 -64.4375 L 23.03125 -64.4375 L 46.890625 -27.96875 L 46.890625 -64.4375 L 64.796875 -64.4375 Z M 64.796875 0 "/></g></g></g><g fill="#079992" fill-opacity="1"><g transform="translate(189.262838, 86.572982)"><g><path d="M 53.640625 -64.4375 L 53.640625 -50.171875 L 36.46875 -50.171875 L 36.46875 0 L 18.546875 0 L 18.546875 -50.171875 L 1.546875 -50.171875 L 1.546875 -64.4375 Z M 53.640625 -64.4375 "/></g></g></g><g fill="#079992" fill-opacity="1"><g transform="translate(244.465577, 86.572982)"><g><path d="M 36.015625 0.640625 C 29.972656 0.640625 24.425781 -0.773438 19.375 -3.609375 C 14.320312 -6.441406 10.316406 -10.367188 7.359375 -15.390625 C 4.398438 -20.421875 2.921875 -26.101562 2.921875 -32.4375 C 2.921875 -38.78125 4.398438 -44.460938 7.359375 -49.484375 C 10.316406 -54.515625 14.320312 -58.429688 19.375 -61.234375 C 24.425781 -64.035156 29.972656 -65.4375 36.015625 -65.4375 C 42.097656 -65.4375 47.648438 -64.035156 52.671875 -61.234375 C 57.703125 -58.429688 61.679688 -54.515625 64.609375 -49.484375 C 67.535156 -44.460938 69 -38.78125 69 -32.4375 C 69 -26.101562 67.535156 -20.421875 64.609375 -15.390625 C 61.679688 -10.367188 57.691406 -6.441406 52.640625 -3.609375 C 47.585938 -0.773438 42.046875 0.640625 36.015625 0.640625 Z M 36.015625 -16 C 40.578125 -16 44.179688 -17.488281 46.828125 -20.46875 C 49.484375 -23.457031 50.8125 -27.445312 50.8125 -32.4375 C 50.8125 -37.5625 49.484375 -41.597656 46.828125 -44.546875 C 44.179688 -47.503906 40.578125 -48.984375 36.015625 -48.984375 C 31.378906 -48.984375 27.75 -47.503906 25.125 -44.546875 C 22.507812 -41.597656 21.203125 -37.5625 21.203125 -32.4375 C 21.203125 -27.382812 22.507812 -23.378906 25.125 -20.421875 C 27.75 -17.472656 31.378906 -16 36.015625 -16 Z M 36.015625 -16 "/></g></g></g><g fill="#079992" fill-opacity="1"><g transform="translate(316.393629, 86.572982)"><g><path d="M 29.421875 0.640625 C 21.929688 0.640625 15.78125 -1.140625 10.96875 -4.703125 C 6.15625 -8.265625 3.566406 -13.367188 3.203125 -20.015625 L 22.296875 -20.015625 C 22.484375 -17.765625 23.15625 -16.117188 24.3125 -15.078125 C 25.46875 -14.046875 26.957031 -13.53125 28.78125 -13.53125 C 30.425781 -13.53125 31.78125 -13.941406 32.84375 -14.765625 C 33.914062 -15.585938 34.453125 -16.726562 34.453125 -18.1875 C 34.453125 -20.070312 33.566406 -21.53125 31.796875 -22.5625 C 30.035156 -23.601562 27.175781 -24.765625 23.21875 -26.046875 C 19.007812 -27.441406 15.609375 -28.796875 13.015625 -30.109375 C 10.429688 -31.421875 8.175781 -33.335938 6.25 -35.859375 C 4.332031 -38.390625 3.375 -41.695312 3.375 -45.78125 C 3.375 -49.925781 4.410156 -53.472656 6.484375 -56.421875 C 8.554688 -59.378906 11.421875 -61.617188 15.078125 -63.140625 C 18.734375 -64.671875 22.878906 -65.4375 27.515625 -65.4375 C 35.003906 -65.4375 40.988281 -63.679688 45.46875 -60.171875 C 49.945312 -56.671875 52.335938 -51.753906 52.640625 -45.421875 L 33.171875 -45.421875 C 33.109375 -47.367188 32.515625 -48.828125 31.390625 -49.796875 C 30.265625 -50.773438 28.816406 -51.265625 27.046875 -51.265625 C 25.710938 -51.265625 24.617188 -50.867188 23.765625 -50.078125 C 22.910156 -49.285156 22.484375 -48.160156 22.484375 -46.703125 C 22.484375 -45.484375 22.953125 -44.429688 23.890625 -43.546875 C 24.835938 -42.660156 26.007812 -41.894531 27.40625 -41.25 C 28.8125 -40.613281 30.882812 -39.8125 33.625 -38.84375 C 37.707031 -37.4375 41.070312 -36.046875 43.71875 -34.671875 C 46.375 -33.304688 48.660156 -31.390625 50.578125 -28.921875 C 52.503906 -26.453125 53.46875 -23.332031 53.46875 -19.5625 C 53.46875 -15.71875 52.503906 -12.269531 50.578125 -9.21875 C 48.660156 -6.175781 45.890625 -3.769531 42.265625 -2 C 38.640625 -0.238281 34.359375 0.640625 29.421875 0.640625 Z M 29.421875 0.640625 "/></g></g></g><g fill="#079992" fill-opacity="1"><g transform="translate(373.058662, 86.572982)"><g/></g></g><g fill="#079992" fill-opacity="1"><g transform="translate(390.515147, 86.572982)"><g><path d="M 80.328125 -64.4375 L 80.328125 0 L 62.421875 0 L 62.421875 -35.546875 L 50.265625 0 L 35.28125 0 L 23.03125 -35.828125 L 23.03125 0 L 5.125 0 L 5.125 -64.4375 L 26.78125 -64.4375 L 42.953125 -22.578125 L 58.765625 -64.4375 Z M 80.328125 -64.4375 "/></g></g></g><g fill="#079992" fill-opacity="1"><g transform="translate(475.969684, 86.572982)"><g><path d="M 45.421875 0 L 32.90625 -18.1875 L 22.203125 0 L 1.828125 0 L 22.75 -32.984375 L 1.09375 -64.4375 L 22.203125 -64.4375 L 34.359375 -46.703125 L 44.78125 -64.4375 L 65.15625 -64.4375 L 44.5 -31.984375 L 66.53125 0 Z M 45.421875 0 "/></g></g></g></svg>